<svg id="wave" style="transform:rotate(0deg); transition: 0.3s" viewBox="0 0 1440 380" version="1.1" xmlns="http://www.w3.org/2000/svg"><defs><linearGradient id="sw-gradient-0" x1="0" x2="0" y1="1" y2="0"><stop stop-color="rgba(238, 240, 245, 1)" offset="0%"></stop><stop stop-color="rgba(107, 167, 145, 1)" offset="100%"></stop></linearGradient></defs><path style="transform:translate(0, 0px); opacity:1" fill="url(#sw-gradient-0)" d="M0,76L30,107.7C60,139,120,203,180,234.3C240,266,300,266,360,240.7C420,215,480,165,540,171C600,177,660,241,720,272.3C780,304,840,304,900,253.3C960,203,1020,101,1080,95C1140,89,1200,177,1260,202.7C1320,228,1380,190,1440,183.7C1500,177,1560,203,1620,202.7C1680,203,1740,177,1800,183.7C1860,190,1920,228,1980,234.3C2040,241,2100,215,2160,196.3C2220,177,2280,165,2340,190C2400,215,2460,279,2520,253.3C2580,228,2640,114,2700,57C2760,0,2820,0,2880,19C2940,38,3000,76,3060,82.3C3120,89,3180,63,3240,69.7C3300,76,3360,114,3420,107.7C3480,101,3540,51,3600,31.7C3660,13,3720,25,3780,69.7C3840,114,3900,190,3960,234.3C4020,279,4080,291,4140,247C4200,203,4260,101,4290,50.7L4320,0L4320,380L4290,380C4260,380,4200,380,4140,380C4080,380,4020,380,3960,380C3900,380,3840,380,3780,380C3720,380,3660,380,3600,380C3540,380,3480,380,3420,380C3360,380,3300,380,3240,380C3180,380,3120,380,3060,380C3000,380,2940,380,2880,380C2820,380,2760,380,2700,380C2640,380,2580,380,2520,380C2460,380,2400,380,2340,380C2280,380,2220,380,2160,380C2100,380,2040,380,1980,380C1920,380,1860,380,1800,380C1740,380,1680,380,1620,380C1560,380,1500,380,1440,380C1380,380,1320,380,1260,380C1200,380,1140,380,1080,380C1020,380,960,380,900,380C840,380,780,380,720,380C660,380,600,380,540,380C480,380,420,380,360,380C300,380,240,380,180,380C120,380,60,380,30,380L0,380Z"></path><defs><linearGradient id="sw-gradient-1" x1="0" x2="0" y1="1" y2="0"><stop stop-color="rgba(230, 233, 239, 1)" offset="0%"></stop><stop stop-color="rgba(138, 209, 184, 1)" offset="100%"></stop></linearGradient></defs><path style="transform:translate(0, 50px); opacity:0.9" fill="url(#sw-gradient-1)" d="M0,0L30,6.3C60,13,120,25,180,63.3C240,101,300,165,360,215.3C420,266,480,304,540,285C600,266,660,190,720,133C780,76,840,38,900,38C960,38,1020,76,1080,82.3C1140,89,1200,63,1260,44.3C1320,25,1380,13,1440,19C1500,25,1560,51,1620,63.3C1680,76,1740,76,1800,82.3C1860,89,1920,101,1980,133C2040,165,2100,215,2160,202.7C2220,190,2280,114,2340,114C2400,114,2460,190,2520,196.3C2580,203,2640,139,2700,152C2760,165,2820,253,2880,266C2940,279,3000,215,3060,171C3120,127,3180,101,3240,107.7C3300,114,3360,152,3420,183.7C3480,215,3540,241,3600,247C3660,253,3720,241,3780,253.3C3840,266,3900,304,3960,291.3C4020,279,4080,215,4140,190C4200,165,4260,177,4290,183.7L4320,190L4320,380L4290,380C4260,380,4200,380,4140,380C4080,380,4020,380,3960,380C3900,380,3840,380,3780,380C3720,380,3660,380,3600,380C3540,380,3480,380,3420,380C3360,380,3300,380,3240,380C3180,380,3120,380,3060,380C3000,380,2940,380,2880,380C2820,380,2760,380,2700,380C2640,380,2580,380,2520,380C2460,380,2400,380,2340,380C2280,380,2220,380,2160,380C2100,380,2040,380,1980,380C1920,380,1860,380,1800,380C1740,380,1680,380,1620,380C1560,380,1500,380,1440,380C1380,380,1320,380,1260,380C1200,380,1140,380,1080,380C1020,380,960,380,900,380C840,380,780,380,720,380C660,380,600,380,540,380C480,380,420,380,360,380C300,380,240,380,180,380C120,380,60,380,30,380L0,380Z"></path></svg>
